<?xml version="1.0" standalone="no"?>
<!DOCTYPE svg PUBLIC "-//W3C//DTD SVG 20010904//EN"
 "http://www.w3.org/TR/2001/REC-SVG-20010904/DTD/svg10.dtd">
<svg version="1.0" xmlns="http://www.w3.org/2000/svg"
 width="260.000000pt" height="260.000000pt" viewBox="0 0 260.000000 260.000000"
 preserveAspectRatio="xMidYMid meet">
<metadata>
Created by potrace 1.14, written by Peter Selinger 2001-2017
</metadata>
<g transform="translate(0.000000,260.000000) scale(0.100000,-0.100000)"
fill="#000000" stroke="none">
<path d="M1117 2391 c-242 -235 -260 -252 -269 -238 -4 6 -8 52 -8 100 0 73
-4 95 -22 127 -54 95 -184 93 -239 -3 -23 -41 -24 -48 -26 -292 l-3 -250 -104
-107 c-58 -60 -108 -108 -112 -108 -11 0 -200 -193 -212 -217 -30 -56 1 -113
62 -113 28 0 43 9 83 50 26 27 51 50 55 50 4 0 155 147 337 328 182 180 398
394 481 475 l152 148 165 -163 c91 -90 306 -302 477 -472 171 -169 327 -320
346 -335 19 -14 45 -38 58 -53 18 -22 33 -28 62 -28 46 0 70 27 70 77 0 33 -8
42 -168 209 -7 8 -16 14 -20 14 -8 0 -63 51 -113 106 -20 21 -72 73 -115 115
-44 42 -95 94 -115 115 -20 22 -54 55 -75 75 -21 20 -55 54 -75 75 -37 39
-148 145 -185 175 -10 9 -35 33 -55 55 -20 21 -80 81 -132 132 -131 127 -120
128 -300 -47z"/>
<path d="M1280 1950 c0 -5 -8 -10 -19 -10 -26 0 -76 -36 -151 -111 -36 -35
-90 -84 -120 -109 -29 -25 -82 -72 -116 -105 -34 -33 -108 -103 -164 -155
-205 -192 -267 -256 -283 -292 -15 -32 -17 -87 -17 -480 0 -441 0 -444 22
-487 13 -24 37 -51 53 -60 17 -9 32 -19 33 -23 2 -5 111 -8 243 -8 l239 0 0
415 0 415 23 5 c12 3 141 4 287 3 l265 -3 3 -417 2 -418 240 0 c153 0 240 4
240 10 0 6 6 10 14 10 23 0 66 40 81 77 22 52 22 914 1 964 -13 31 -91 108
-374 374 -47 44 -97 92 -111 108 -14 15 -29 27 -34 27 -5 0 -32 22 -61 50
-161 156 -213 200 -243 206 -18 3 -33 10 -33 15 0 5 -4 9 -10 9 -5 0 -10 -4
-10 -10z"/>
</g>
</svg>
